<?xml version="1.0" standalone="no"?> <!DOCTYPE svg PUBLIC "-//W3C//DTD SVG 1.0//EN" "http://www.w3.org/TR/2001/REC-SVG-20010904/DTD/svg10.dtd" > <svg xmlns="http://www.w3.org/2000/svg" width="100%" height="100%">
<defs >
<font id="eurostileltcondensed_0" horiz-adv-x="395" ><font-face
    font-family="Eurostile LT Condensed"
    units-per-em="1000"
    panose-1="2 0 5 6 3 0 0 2 0 4"
    ascent="956"
    descent="-208"
    alphabetic="0" />
<missing-glyph horiz-adv-x="278" />
<glyph unicode=" " glyph-name="space" horiz-adv-x="278" />
<glyph unicode="!" glyph-name="exclam" horiz-adv-x="222" d="M76 196H146V724H76V196ZM76 0H146V92H76V0Z" />
<glyph unicode="&quot;" glyph-name="quotedbl" horiz-adv-x="296" d="M59 524H117V724H59V524ZM179 524H237V724H179V524Z" />
<glyph unicode="#" glyph-name="numbersign" horiz-adv-x="556" d="M215 441H361L339 283H193L215 441ZM98 0H155L186 231H332L299 0H356L389 231H503V283H396L418 441H532V493H425L458 724H401L368 493H222L257 724H200L167 493H53V441H160L138 283H24V231H131L98 0Z" />
<glyph unicode="$" glyph-name="dollar" horiz-adv-x="556" d="M312 332Q360 330 386 325T426 307T442 268T445 203Q445 158 441 130T423 86T383 63T312 55V332ZM254 403Q210 405 184 411T144 432T126 471T122 534Q122 577 127 603T147 643T187 663T254 668V403ZM254
-110H312V-8Q372 -8 410 2T470 37T500 100T509 196Q509 260 501 299T471 359T411 390T312 402V668Q353 668 378 665T418 650T437 612T442 541V522H506V554Q506 612 496 646T464 698T404 723T312 732V821H254V732H232Q182 732 149 723T95 691T67 633T58 542Q58 482
66 444T96 382T156 349T254 335V56H230Q192 56 169 61T133 80T116 116T111 172V227H47V170Q47 124 55 91T84 35T139 3T227 -8H254V-110Z" />
<glyph unicode="%" glyph-name="percent" horiz-adv-x="796" d="M546 259Q546 302 548 328T557 367T581 385T626 389Q654 389 670 385T694 368T704 328T706 259V180Q706 137 704 111T695 72T671 54T626 50Q597 50 581 54T558 71T548 111T546 180V259ZM147 -8H205L648
732H590L147 -8ZM90 544Q90 587 92 613T101 652T125 670T170 674Q198 674 214 670T238 653T248 613T250 544V465Q250 422 248 396T239 357T215 339T170 335Q141 335 125 339T102 356T92 396T90 465V544ZM488 113Q488 84 493 62T513 24T555 0T626 -8Q670 -8 697
0T739 24T759 62T764 113V326Q764 354 759 376T739 415T697 439T626 447Q582 447 555 439T513 415T493 377T488 326V113ZM32 398Q32 369 37 347T57 309T99 285T170 277Q214 277 241 285T283 309T303 347T308 398V611Q308 639 303 661T283 700T241 724T170 732Q126
732 99 724T57 700T37 662T32 611V398Z" />
<glyph unicode="&amp;" glyph-name="ampersand" horiz-adv-x="556" d="M131 283Q131 324 150 341T195 358Q208 358 212 356T218 349L371 163V135Q371 95 347 79T260 62Q223 62 198 67T158 83T137 114T131 162V283ZM508 0L561 49L452 175V404H382V257H380V259L383
257L190 494Q170 519 161 538T152 580Q152 608 158 624T177 649T209 660T256 662Q286 662 304 657T333 644T347 624T351 600V535H415V596Q415 625 412 650T393 693T344 721T250 732Q197 732 166 724T117 699T94 653T88 585Q88 558 92 538T106 500T130 464T162 422Q140
420 122 412T90 382T69 322T61 222Q61 151 67 107T93 37T151 2T253 -8Q293 -8 323 -5T376 9T412 38T433 87L508 0Z" />
<glyph unicode="&apos;" glyph-name="quotesingle" horiz-adv-x="168" d="M55 524H113V724H55V524Z" />
<glyph unicode="(" glyph-name="parenleft" horiz-adv-x="296" d="M247 732Q203 732 173 722T124 687T97 616T88 500V224Q88 153 96 108T123 38T172 2T247 -8V56Q219 56 201 63T172 83T157 115T152 159V565Q152 590 156 609T171 641T200 661T247 668V732Z" />
<glyph unicode=")" glyph-name="parenright" horiz-adv-x="296" d="M49 -8Q93 -8 123 2T172 37T199 108T208 224V500Q208 570 200 615T173 686T124 722T49 732V668Q77 668 95 661T124 641T139 609T144 565V159Q144 134 140 115T125 83T96 63T49 56V-8Z" />
<glyph unicode="*" glyph-name="asterisk" horiz-adv-x="462" d="M184 588L222 611L168 732L124 713L184 588ZM124 375L168 356L222 477L184 500L124 375ZM294 356L338 375L278 500L240 477L294 356ZM240 611L278 588L338 713L294 732L240 611ZM405 521V567H285V521H405ZM177
521V567H57V521H177Z" />
<glyph unicode="+" glyph-name="plus" horiz-adv-x="600" d="M47 224H271V0H329V224H553V282H329V506H271V282H47V224Z" />
<glyph unicode="," glyph-name="comma" horiz-adv-x="278" d="M104 0H134Q134 -23 132 -36T126 -57T115 -66T98 -68V-108Q117 -108 131 -106T155 -94T169 -67T174 -17V92H104V0Z" />
<glyph unicode="-" glyph-name="hyphen" horiz-adv-x="296" d="M38 236H258V294H38V236Z" />
<glyph unicode="." glyph-name="period" horiz-adv-x="278" d="M104 0H174V92H104V0Z" />
<glyph unicode="/" glyph-name="slash" horiz-adv-x="296" d="M-32 -8H30L328 732H266L-32 -8Z" />
<glyph unicode="0" glyph-name="zero" horiz-adv-x="556" d="M508 507Q508 581 496 625T456 693T384 724T278 732Q216 732 172 725T101 694T61 626T48 507V217Q48 143 60 99T100 31T172 0T278 -8Q340 -8 384 -1T455 30T495 98T508 217V507ZM438 196Q438 146 431
119T406 80T357 65T278 62Q230 62 199 64T150 79T125 119T118 196V528Q118 577 125 604T150 644T199 659T278 662Q326 662 357 660T406 645T431 605T438 528V196Z" />
<glyph unicode="1" glyph-name="one" horiz-adv-x="556" d="M280 0H350V724H257L83 508L130 465L278 654H280V0Z" />
<glyph unicode="2" glyph-name="two" horiz-adv-x="556" d="M54 0H497V70H124V143Q124 175 129 198T151 236T202 260T295 273Q367 277 408 294T471 341T497 416T502 520Q502 586 491 627T454 692T386 724T281 732Q201 732 157 718T90 679T63 617T58 535V492H122V527Q122
570 126 596T147 637T194 657T278 662Q329 662 359 656T406 634T427 590T432 519Q432 463 427 431T407 380T361 355T281 343Q214 337 170 326T101 292T65 229T54 128V0Z" />
<glyph unicode="3" glyph-name="three" horiz-adv-x="556" d="M235 335Q303 335 343 333T405 318T432 280T438 205Q438 158 434 130T414 87T366 67T276 62Q215 62 182 67T134 91T115 142T112 233H48V183Q48 124 58 87T94 29T166 0T283 -8Q362 -8 407 2T474 37T502
104T508 209Q508 255 502 283T484 328T456 354T418 369V371Q469 386 486 426T504 536Q504 589 498 626T469 687T400 721T275 732Q228 732 189 728T122 707T79 657T64 566V503H128V559Q128 596 137 617T164 648T212 660T283 662Q338 662 368 657T413 637T431 600T434
540Q434 489 428 461T400 419T340 402T235 399V335Z" />
<glyph unicode="4" glyph-name="four" horiz-adv-x="556" d="M364 234H79L362 654H364V234ZM364 0H434V164H525V234H434V724H330L21 264V164H364V0Z" />
<glyph unicode="5" glyph-name="five" horiz-adv-x="556" d="M66 362H126Q134 384 145 396T172 415T213 424T273 426Q333 426 365 417T413 386T431 330T434 244Q434 186 431 150T412 95T366 69T277 62Q221 62 189 67T140 88T120 132T116 207H52V153Q52 101 69
70T115 21T185 -2T271 -8Q342 -8 387 0T458 36T494 112T504 244Q504 312 497 360T468 438T404 482T293 496Q262 496 239 494T198 486T166 469T138 440H136V660H480V724H66V362Z" />
<glyph unicode="6" glyph-name="six" horiz-adv-x="556" d="M493 546Q493 603 483 639T448 696T382 724T278 732Q216 732 172 725T101 694T61 626T48 507V217Q48 143 60 99T100 31T172 0T278 -8Q340 -8 384 -1T455 30T495 98T508 217Q508 287 499 330T466 399T401
433T293 442Q258 442 233 441T187 433T151 413T120 378H118V519Q118 569 126 597T153 640T205 658T285 662Q334 662 362 658T404 642T422 606T429 546H493ZM438 220Q438 164 432 133T409 85T361 66T278 62Q227 62 196 65T147 85T124 132T118 220Q118 274 123 305T145
353T193 373T278 378Q329 378 360 375T409 355T432 308T438 220Z" />
<glyph unicode="7" glyph-name="seven" horiz-adv-x="556" d="M115 0H189L492 618V724H48V654H434L115 0Z" />
<glyph unicode="8" glyph-name="eight" horiz-adv-x="556" d="M118 202Q118 249 123 276T146 318T194 337T278 342Q330 342 361 338T410 319T432 277T438 202Q438 155 433 128T410 86T362 67T278 62Q226 62 195 66T146 85T124 127T118 202ZM122 537Q122 574 124
599T141 640T187 661T278 668Q336 668 368 662T414 640T431 600T434 537Q434 499 432 474T415 434T368 413T278 406Q219 406 188 412T142 434T125 474T122 537ZM48 194Q48 125 60 85T100 24T171 -2T278 -8Q341 -8 384 -3T455 24T495 85T508 194Q508 233 506 262T494
313T467 350T419 375V377Q444 386 460 400T484 434T495 480T498 538V568Q498 621 487 653T451 703T383 726T278 732Q215 732 173 727T105 704T69 654T58 568V538Q58 506 61 480T72 434T95 400T137 377V375Q107 365 90 350T63 314T51 263T48 194Z" />
<glyph unicode="9" glyph-name="nine" horiz-adv-x="556" d="M63 178Q63 121 73 85T108 28T174 0T278 -8Q340 -8 384 -1T455 30T495 98T508 217V507Q508 581 496 625T456 693T384 724T278 732Q216 732 172 725T101 694T61 626T48 507Q48 437 57 393T90 325T155
291T263 282Q297 282 323 283T369 291T405 311T436 346H438V205Q438 155 430 127T403 84T351 66T271 62Q222 62 194 66T152 82T134 118T127 178H63ZM118 504Q118 560 124 591T147 639T195 658T278 662Q329 662 360 659T409 639T432 592T438 504Q438 450 433 419T411
371T363 351T278 346Q227 346 196 349T147 369T124 416T118 504Z" />
<glyph unicode=":" glyph-name="colon" horiz-adv-x="278" d="M104 389H174V481H104V389ZM104 0H174V92H104V0Z" />
<glyph unicode=";" glyph-name="semicolon" horiz-adv-x="278" d="M104 0H134Q134 -23 132 -36T126 -57T115 -66T98 -68V-108Q117 -108 131 -106T155 -94T169 -67T174 -17V92H104V0ZM104 389H174V481H104V389Z" />
<glyph unicode="&lt;" glyph-name="less" horiz-adv-x="600" d="M553 514L47 282V224L553 -8V54L118 253L553 452V514Z" />
<glyph unicode="=" glyph-name="equal" horiz-adv-x="600" d="M47 323H553V381H47V323ZM47 125H553V183H47V125Z" />
<glyph unicode="&gt;" glyph-name="greater" horiz-adv-x="600" d="M47 -8L553 224V282L47 514V452L482 253L47 54V-8Z" />
<glyph unicode="?" glyph-name="question" horiz-adv-x="426" d="M25 501H89Q89 559 92 591T109 639T147 658T216 662Q260 662 284 656T320 637T334 601T337 548Q337 500 335 473T326 430T309 408T280 392Q232 371 204 356T163 326T146 290T142 238V196H212V246Q212
261 214 271T225 289T251 305T297 325T346 349T378 384T395 445T401 550Q401 595 395 629T370 686T313 720T213 732Q178 732 144 729T84 710T41 664T25 577V501ZM142 0H212V92H142V0Z" />
<glyph unicode="@" glyph-name="at" horiz-adv-x="800" d="M249 298Q249 332 262 372T298 446T353 504T424 527Q465 527 487 499T510 425Q510 387 497 346T462 271T409 214T344 192Q302 192 276 222T249 298ZM544 496Q535 520 521 536T491 561T459 575T428 579Q372
579 327 554T248 488T197 397T179 296Q179 263 189 235T218 185T262 152T318 140Q362 140 397 159T457 207H459Q464 175 482 158T528 140Q567 140 609 161T688 221T747 312T770 425Q770 492 742 548T666 645T553 709T415 732Q336 732 266 704T144 625T61 508T30
365Q30 284 58 216T138 98T262 20T421 -8Q470 -8 518 4T610 39T689 96T749 171H689Q666 141 636 118T571 78T498 53T421 44Q348 44 287 68T182 135T113 235T88 358Q88 424 113 483T182 585T286 654T417 680Q475 680 528 663T622 612T687 532T712 424Q712 385 698
344T660 269T607 214T546 192Q523 192 523 217Q523 228 525 243T533 273L630 560H568L544 496Z" />
<glyph unicode="A" glyph-name="A" horiz-adv-x="574" d="M421 223H153L282 654H292L421 223ZM490 0H563L336 724H238L11 0H84L131 153H443L490 0Z" />
<glyph unicode="B" glyph-name="B" horiz-adv-x="574" d="M131 340H331Q371 340 395 334T432 311T449 270T453 205Q453 166 449 141T433 99T396 77T331 70H131V340ZM131 654H348Q381 654 399 645T427 620T437 582T439 532Q439 504 436 482T422 443T393 419T344
410H131V654ZM61 0H346Q398 0 432 11T486 46T514 105T523 190Q523 234 520 267T508 323T482 360T434 381V383Q459 393 474 408T496 443T506 491T509 552Q509 596 503 628T478 682T429 713T346 724H61V0Z" />
<glyph unicode="C" glyph-name="C" horiz-adv-x="574" d="M531 241H467V193Q467 156 463 131T442 91T394 69T307 62Q245 62 209 68T153 93T127 148T121 244V480Q121 540 127 576T152 631T208 656T307 662Q353 662 384 659T433 643T459 605T467 538V491H531V543Q531
606 519 643T479 700T410 726T307 732Q235 732 186 723T107 688T64 612T51 484V240Q51 160 64 112T107 37T186 1T307 -8Q373 -8 416 0T484 30T520 89T531 186V241Z" />
<glyph unicode="D" glyph-name="D" horiz-adv-x="611" d="M61 0H328Q410 0 457 24T526 96T554 218T560 391Q560 470 555 532T529 636T462 701T338 724H61V0ZM131 654H350Q394 654 421 642T464 598T484 508T490 362Q490 276 485 220T464 130T421 84T350 70H131V654Z" />
<glyph unicode="E" glyph-name="E" horiz-adv-x="500" d="M61 0H447V70H131V340H433V410H131V654H449V724H61V0Z" />
<glyph unicode="F" glyph-name="F" horiz-adv-x="463" d="M61 0H131V330H424V400H131V654H436V724H61V0Z" />
<glyph unicode="G" glyph-name="G" horiz-adv-x="593" d="M289 286H477V214Q477 157 470 127T444 82T392 65T306 62Q244 62 208 68T152 93T127 148T121 244V480Q121 540 127 576T152 631T207 656T306 662Q361 662 394 658T446 641T471 603T477 536V510H547V583Q547
634 530 664T480 709T404 728T306 732Q235 732 186 723T107 688T64 612T51 484V240Q51 160 64 112T107 37T186 1T306 -8Q364 -8 409 -4T485 20T531 80T547 194V356H289V286Z" />
<glyph unicode="H" glyph-name="H" horiz-adv-x="611" d="M61 0H131V334H480V0H550V724H479V410H131V724H61V0Z" />
<glyph unicode="I" glyph-name="I" horiz-adv-x="222" d="M76 0H146V724H76V0Z" />
<glyph unicode="J" glyph-name="J" horiz-adv-x="463" d="M332 156Q332 127 326 109T307 81T270 66T213 62Q179 62 156 66T120 80T100 109T94 156V260H24V154Q24 104 36 73T73 23T132 -1T213 -8Q258 -8 293 -2T353 23T389 72T402 154V724H332V156Z" />
<glyph unicode="K" glyph-name="K" horiz-adv-x="537" d="M61 0H131V340H192L468 0H558L255 374L528 724H441L196 410H131V724H61V0Z" />
<glyph unicode="L" glyph-name="L" horiz-adv-x="463" d="M61 0H436V76H131V724H61V0Z" />
<glyph unicode="M" glyph-name="M" horiz-adv-x="796" d="M61 0H131V648H133L360 0H436L663 648H665V0H735V724H618L399 85H397L178 724H61V0Z" />
<glyph unicode="N" glyph-name="N" horiz-adv-x="630" d="M61 0H131V648H133L458 0H569V724H499V76H497L172 724H61V0Z" />
<glyph unicode="O" glyph-name="O" horiz-adv-x="612" d="M491 244Q491 184 485 148T460 93T404 68T306 62Q244 62 208 68T152 93T127 148T121 244V480Q121 540 127 576T152 631T207 656T306 662Q367 662 404 656T460 631T485 576T491 480V244ZM51 240Q51 160
64 112T107 37T186 1T306 -8Q377 -8 426 1T505 36T548 111T561 240V484Q561 563 548 612T505 687T426 723T306 732Q235 732 186 723T107 688T64 612T51 484V240Z" />
<glyph unicode="P" glyph-name="P" horiz-adv-x="537" d="M131 654H345Q374 654 393 649T423 629T440 583T445 503Q445 457 440 428T421 382T387 359T334 352H131V654ZM61 0H131V282H326Q368 282 403 289T463 320T501 387T515 503Q515 552 509 593T487 663T441
708T365 724H61V0Z" />
<glyph unicode="Q" glyph-name="Q" horiz-adv-x="612" d="M121 480Q121 544 125 580T148 635T204 657T306 662Q371 662 408 658T463 635T486 581T491 480V244Q491 221 491 203T488 170L334 300L296 255L474 104Q467 90 455 82T422 69T373 63T306 62Q241 62 204
66T149 89T126 143T121 244V480ZM51 240Q51 160 62 112T103 37T182 1T306 -8Q351 -8 386 -5T449 5T495 26T528 59L564 28L602 74L550 118Q556 143 558 173T561 240V484Q561 563 550 612T509 687T430 723T306 732Q231 732 182 723T104 688T63 612T51 484V240Z" />
<glyph unicode="R" glyph-name="R" horiz-adv-x="593" d="M61 0H131V291H313Q354 291 380 285T422 264T444 225T450 165V0H520V198Q520 249 502 281T440 325V327Q465 333 482 346T511 382T527 438T532 519Q532 579 523 619T492 682T438 714T357 724H61V0ZM131
654H336Q376 654 401 650T439 632T457 588T462 507Q462 432 438 397T358 361H131V654Z" />
<glyph unicode="S" glyph-name="S" horiz-adv-x="536" d="M44 171Q44 116 56 82T94 27T164 0T269 -8Q330 -8 372 0T441 30T480 92T492 196Q492 262 483 301T450 361T384 391T274 404Q224 407 194 413T148 434T127 471T122 534Q122 574 126 599T145 638T189 657T270
662Q315 662 344 657T391 639T416 603T423 544V528H487Q485 591 476 630T443 692T378 723T270 732Q208 732 167 726T100 699T63 639T52 534Q52 482 58 447T82 391T128 358T204 343L278 337Q332 332 361 324T403 302T419 264T422 206Q422 155 417 126T396 83T350
65T268 62Q217 62 186 66T137 83T114 120T108 185V227H44V171Z" />
<glyph unicode="T" glyph-name="T" horiz-adv-x="480" d="M205 0H275V654H473V724H7V654H205V0Z" />
<glyph unicode="U" glyph-name="U" horiz-adv-x="594" d="M61 185Q61 127 74 90T115 31T188 1T296 -8Q360 -8 405 0T479 30T520 89T533 185V724H463V164Q463 135 455 116T428 84T377 67T296 62Q248 62 216 67T166 84T139 115T131 164V724H61V185Z" />
<glyph unicode="V" glyph-name="V" horiz-adv-x="556" d="M229 0H327L544 724H473L279 70H277L83 724H12L229 0Z" />
<glyph unicode="W" glyph-name="W" horiz-adv-x="926" d="M625 0H727L916 724H848L678 70H676L516 724H410L250 70H248L78 724H10L199 0H301L462 654H464L625 0Z" />
<glyph unicode="X" glyph-name="X" horiz-adv-x="574" d="M19 0H100L287 326L474 0H555L336 368L542 724H463L287 414L111 724H32L236 368L19 0Z" />
<glyph unicode="Y" glyph-name="Y" horiz-adv-x="520" d="M225 0H295V301L521 724H448L260 372L72 724H-1L225 301V0Z" />
<glyph unicode="Z" glyph-name="Z" horiz-adv-x="520" d="M26 0H494V70H106L489 654V724H40V654H409L26 70V0Z" />
<glyph unicode="[" glyph-name="bracketleft" horiz-adv-x="296" d="M88 0H218V64H152V660H218V724H88V0Z" />
<glyph unicode="\" glyph-name="backslash" horiz-adv-x="296" d="M266 -8H328L30 732H-32L266 -8Z" />
<glyph unicode="]" glyph-name="bracketright" horiz-adv-x="296" d="M78 0H208V724H78V660H144V64H78V0Z" />
<glyph unicode="^" glyph-name="asciicircum" horiz-adv-x="600" d="M47 285H110L300 660L490 285H553L329 724H271L47 285Z" />
<glyph unicode="_" glyph-name="underscore" horiz-adv-x="500" d="M500 -125V-75H0V-125H500Z" />
<glyph unicode="`" glyph-name="grave" horiz-adv-x="204" d="M114 568H165L54 707H-24L114 568Z" />
<glyph unicode="a" glyph-name="a" horiz-adv-x="463" d="M352 0H410V373Q410 410 403 437T377 483T323 509T236 518Q176 518 142 508T90 480T67 441T62 396V369H126Q126 393 128 410T140 439T172 455T233 460Q273 460 295 455T329 438T343 407T346 359V266H344Q335
279 326 288T301 302T263 309T203 312Q152 312 121 301T73 270T50 219T44 152Q44 115 50 86T74 35T123 3T203 -8Q231 -8 252 -6T291 3T323 19T352 44V0ZM108 155Q108 213 137 233T230 254Q294 254 323 234T352 155Q352 126 345 107T323 76T285 61T230 56Q198 56
175 60T137 76T115 106T108 155Z" />
<glyph unicode="b" glyph-name="b" horiz-adv-x="481" d="M367 255Q367 189 362 150T344 90T306 63T245 56Q205 56 181 65T144 99T127 168T123 285Q123 332 129 364T149 416T187 445T245 454Q282 454 306 448T343 421T362 361T367 255ZM59 0H123V64H125Q143 26
172 9T256 -8Q309 -8 344 5T399 48T428 129T437 255Q437 330 429 380T401 461T348 505T266 518Q222 518 187 505T125 446H123V724H59V0Z" />
<glyph unicode="c" glyph-name="c" horiz-adv-x="444" d="M399 340Q399 391 393 425T368 479T317 509T232 518Q174 518 138 507T80 466T52 385T44 255Q44 177 49 127T74 46T131 4T232 -8Q275 -8 307 -2T362 22T396 71T408 152V185H344Q344 144 340 118T323 76T288
56T232 50Q194 50 171 55T135 81T118 143T114 255Q114 326 118 367T134 428T170 454T232 460Q264 460 284 455T315 435T331 398T335 340H399Z" />
<glyph unicode="d" glyph-name="d" horiz-adv-x="481" d="M114 255Q114 321 119 360T137 420T174 447T236 454Q270 454 293 445T331 416T352 364T358 285Q358 213 354 169T337 99T300 65T236 56Q198 56 175 62T138 89T119 149T114 255ZM358 0H422V724H358V446H356Q330
491 295 504T215 518Q165 518 133 505T80 462T52 381T44 255Q44 180 52 130T81 49T137 5T225 -8Q279 -8 308 9T356 64H358V0Z" />
<glyph unicode="e" glyph-name="e" horiz-adv-x="463" d="M114 304Q114 344 116 373T129 422T163 451T230 460Q273 460 296 451T331 423T344 374T346 304H114ZM410 240V317Q410 369 404 407T378 469T324 506T232 518Q174 518 138 507T80 466T52 385T44 255Q44
177 49 127T74 46T131 4T232 -8Q289 -8 324 -1T378 24T403 68T410 133V152H346Q346 114 341 94T322 64T284 52T221 50Q188 50 167 56T135 79T119 123T114 193V240H410Z" />
<glyph unicode="f" glyph-name="f" horiz-adv-x="259" d="M88 0H152V452H264V510H152V602Q152 645 172 659T224 674Q235 674 245 674Q255 674 266 673V730Q255 731 244 731T221 732Q154 732 121 703T88 602V510H25V452H88V0Z" />
<glyph unicode="g" glyph-name="g" horiz-adv-x="481" d="M123 268Q123 319 126 354T140 411T174 444T235 454Q274 454 299 446T338 416T358 358T364 268Q364 214 359 178T339 121T299 91T235 82Q196 82 174 92T141 124T126 182T123 268ZM364 17Q364 -28 359 -55T341
-98T303 -118T239 -124Q208 -124 188 -121T155 -108T137 -84T131 -46H67Q66 -86 77 -113T108 -157T158 -181T225 -188Q283 -188 322 -179T385 -148T418 -89T428 5V510H364V441H362Q341 487 310 502T229 518Q167 518 132 499T80 446T58 367T53 268Q53 215 57 170T79
90T132 37T229 18Q276 18 309 33T362 92H364V17Z" />
<glyph unicode="h" glyph-name="h" horiz-adv-x="463" d="M53 0H117V322Q117 362 126 389T153 431T195 453T249 460Q280 460 299 451T329 425T342 388T346 345V0H410V360Q410 397 403 426T379 476T333 507T260 518Q232 518 211 514T174 502T144 479T119 444H117V724H53V0Z"
/>
<glyph unicode="i" glyph-name="i" horiz-adv-x="204" d="M70 0H134V510H70V0ZM70 639H134V724H70V639Z" />
<glyph unicode="j" glyph-name="j" horiz-adv-x="204" d="M70 -80Q70 -106 60 -113T21 -120V-176Q27 -178 32 -178Q38 -178 45 -178Q134 -178 134 -94V510H70V-80ZM70 639H134V724H70V639Z" />
<glyph unicode="k" glyph-name="k" horiz-adv-x="389" d="M319 0H404L198 274L377 510H298L147 304H117V724H53V0H117V240H145L319 0Z" />
<glyph unicode="l" glyph-name="l" horiz-adv-x="204" d="M70 0H134V724H70V0Z" />
<glyph unicode="m" glyph-name="m" horiz-adv-x="758" d="M53 0H117V292Q117 372 146 413T246 454Q299 454 323 432T347 353V0H411V321Q411 396 441 425T534 454Q558 454 578 449T612 431T633 393T641 330V0H705V367Q705 518 553 518Q499 518 464 500T400 435Q380
486 343 502T254 518Q200 518 172 497T119 434H117V510H53V0Z" />
<glyph unicode="n" glyph-name="n" horiz-adv-x="463" d="M53 0H117V322Q117 362 126 389T153 431T195 453T249 460Q280 460 299 451T329 425T342 388T346 345V0H410V360Q410 397 403 426T379 476T333 507T260 518Q232 518 211 514T174 502T144 479T119 444H117V510H53V0Z"
/>
<glyph unicode="o" glyph-name="o" horiz-adv-x="464" d="M114 255Q114 326 118 367T134 428T170 454T232 460Q270 460 293 455T329 429T346 367T350 255Q350 184 346 143T330 82T294 56T232 50Q194 50 171 55T135 81T118 143T114 255ZM44 255Q44 176 50 125T75
45T132 4T232 -8Q294 -8 331 3T388 44T414 125T420 255Q420 331 414 381T389 462T332 505T232 518Q169 518 132 506T75 463T50 382T44 255Z" />
<glyph unicode="p" glyph-name="p" horiz-adv-x="481" d="M367 255Q367 189 362 150T344 90T306 63T245 56Q205 56 181 65T144 99T127 168T123 285Q123 332 129 364T149 416T187 445T245 454Q282 454 306 448T343 421T362 361T367 255ZM59 -178H123V64H125Q143
26 172 9T256 -8Q309 -8 344 5T399 48T428 129T437 255Q437 330 429 380T401 461T348 505T266 518Q222 518 187 505T125 446H123V510H59V-178Z" />
<glyph unicode="q" glyph-name="q" horiz-adv-x="481" d="M114 255Q114 321 119 360T137 420T174 447T236 454Q270 454 293 445T331 416T352 364T358 285Q358 213 354 169T337 99T300 65T236 56Q198 56 175 62T138 89T119 149T114 255ZM358 -178H422V510H358V446H356Q330
491 295 504T215 518Q165 518 133 505T80 462T52 381T44 255Q44 180 52 130T81 49T137 5T225 -8Q279 -8 308 9T356 64H358V-178Z" />
<glyph unicode="r" glyph-name="r" horiz-adv-x="370" d="M53 0H117V355Q117 462 214 460Q241 460 257 455T283 436T294 399T297 340H355V381Q355 458 327 488T237 518Q189 518 163 502T119 448H117V510H53V0Z" />
<glyph unicode="s" glyph-name="s" horiz-adv-x="463" d="M52 158Q52 101 62 68T94 18T147 -3T223 -8Q285 -8 322 0T379 28T405 79T411 155Q411 197 405 222T381 260T328 279T237 288Q196 290 173 293T138 305T123 329T120 372Q120 402 124 419T139 446T171 457T225
460Q261 460 284 458T319 448T337 423T342 377H406Q406 417 399 444T373 487T319 511T228 518Q171 518 137 510T85 484T62 438T56 369Q56 327 63 301T89 260T139 239T219 230Q264 227 290 224T328 213T344 191T347 151Q347 119 343 99T325 68T288 54T225 50Q189
50 168 54T134 71T119 104T116 158H52Z" />
<glyph unicode="t" glyph-name="t" horiz-adv-x="333" d="M70 97Q70 68 75 49T94 16T131 -2T190 -8Q218 -8 241 -3T280 20T306 75T316 172H258Q258 130 254 106T242 69T220 53T189 50Q157 50 146 64T134 111V452H299V510H134V628H70V510H17V452H70V97Z" />
<glyph unicode="u" glyph-name="u" horiz-adv-x="463" d="M410 510H346V188Q346 147 337 121T310 79T268 57T214 50Q182 50 163 59T134 85T121 122T117 165V510H53V150Q53 113 60 84T84 34T130 3T203 -8Q258 -8 289 8T344 66H346V0H410V510Z" />
<glyph unicode="v" glyph-name="v" horiz-adv-x="390" d="M150 0H240L383 510H317L196 64H194L73 510H7L150 0Z" />
<glyph unicode="w" glyph-name="w" horiz-adv-x="630" d="M128 0H221L314 446H316L409 0H502L623 510H560L459 64H457L361 510H269L173 65H171L70 510H7L128 0Z" />
<glyph unicode="x" glyph-name="x" horiz-adv-x="408" d="M19 0H94L204 208L314 0H389L237 265L375 510H304L204 323L104 510H33L167 265L19 0Z" />
<glyph unicode="y" glyph-name="y" horiz-adv-x="390" d="M70 -184Q75 -186 83 -187T100 -188Q161 -188 193 -154T242 -53L379 510H315L206 64H204L74 510H11L160 0H189Q180 -41 172 -65T151 -102T119 -120T70 -124V-184Z" />
<glyph unicode="z" glyph-name="z" horiz-adv-x="390" d="M23 0H352V58H93L356 446V510H49V452H286L23 70V0Z" />
<glyph unicode="{" glyph-name="braceleft" horiz-adv-x="296" d="M236 724H181Q139 724 114 698T88 627V510Q88 456 71 425T14 394V330Q54 330 71 299T88 213V97Q88 52 113 26T181 0H236V52H194Q172 52 162 75T152 127V241Q152 272 143 294T122 330T97 351T78
361V363Q84 364 96 371T121 393T143 430T152 482V597Q152 626 162 649T194 672H236V724Z" />
<glyph unicode="|" glyph-name="bar" horiz-adv-x="222" d="M82 -8H140V732H82V-8Z" />
<glyph unicode="}" glyph-name="braceright" horiz-adv-x="296" d="M60 0H115Q157 0 182 26T208 97V214Q208 268 225 299T282 330V394Q242 394 225 425T208 511V627Q208 672 183 698T115 724H60V672H102Q124 672 134 649T144 597V483Q144 452 153 430T174 394T199
373T218 363V361Q212 359 200 352T175 331T153 294T144 242V127Q144 98 134 75T102 52H60V0Z" />
<glyph unicode="~" glyph-name="asciitilde" horiz-adv-x="600" d="M105 186Q111 199 118 212T136 235T159 251T189 258Q227 258 253 248T303 224T350 201T406 190Q429 190 447 197T480 217T507 244T531 276L495 320Q486 307 477 294T458 271T435 255T407 248Q388
248 363 258T309 282T251 305T194 316Q169 316 150 309T115 289T89 262T69 230L105 186Z" />
<glyph unicode="&#x80;" glyph-name="Euro" horiz-adv-x="556" d="M96 273V240Q96 165 107 117T145 41T217 3T330 -8Q373 -8 404 -3T456 9T489 25T507 40V130Q496 114 482 101T446 79T397 64T330 59Q274 59 242 66T192 93T171 150T166 244V273H405L423 325H166V404H451L469
456H166V480Q166 538 170 574T192 630T241 658T330 665Q368 665 395 660T443 643T478 613T507 568L533 644Q523 660 508 676T469 704T411 724T330 732Q262 732 217 722T145 684T107 608T96 484V456H40L22 404H96V325H36L18 273H96Z" />
</font>
</defs>
</svg>
